<svg width="49" height="59" viewBox="0 0 93 117" fill="none" xmlns="http://www.w3.org/2000/svg">
<path d="M40.013 39.728H5.405V17.216H39.773V23.936H15.101V25.664H39.293V31.712H15.053V33.536H39.965L40.013 39.728ZM2.525 48.656V41.888H42.845V48.656H27.581V54.944H17.645V48.656H2.525ZM61.4896 24.704L60.6256 30.224H69.7456L73.7296 54.368H64.5136L60.5776 30.32L56.6416 54.368H46.8976L52.1776 24.704H46.3216V17.744H73.1056V24.704H61.4896ZM77.3776 54.8V16.496H86.8336V31.088H91.1056V39.104H86.8336V54.8H77.3776Z" fill="#40C7CD"/>
<path d="M17.6146 69.704L16.7506 75.224H25.8706L29.8546 99.368H20.6386L16.7026 75.32L12.7666 99.368H3.02263L8.30263 69.704H2.44663V62.744H29.2306V69.704H17.6146ZM33.9826 99.8V61.496H43.4866V99.8H33.9826ZM75.272 99.512H50.6V62.744H59.816V91.928H75.272V99.512ZM79.352 99.8V61.496H88.856V99.8H79.352Z" fill="#40C7CD"/>
</svg>
